M48
; DRILL file {KiCad 5.1.10-88a1d61d58~90~ubuntu20.04.1} date Wed Sep 15 20:54:38 2021
; FORMAT={-:-/ absolute / inch / decimal}
; #@! TF.CreationDate,2021-09-15T20:54:38-06:00
; #@! TF.GenerationSoftware,Kicad,Pcbnew,5.1.10-88a1d61d58~90~ubuntu20.04.1
; #@! TF.FileFunction,Plated,1,2,PTH
FMAT,2
INCH
T1C0.0157
T2C0.0315
T3C0.0354
T4C0.0400
T5C0.0413
T6C0.0433
T7C0.1200
%
G90
G05
T1
X6.075Y-3.825
X6.19Y-4.145
X6.195Y-4.195
X6.365Y-4.295
X6.485Y-4.35
T2
X5.85Y-3.355
X6.15Y-3.355
X6.52Y-3.175
X6.82Y-3.175
T3
X5.59Y-3.355
X5.69Y-3.355
T4
X5.11Y-2.975
X5.21Y-2.975
X5.31Y-2.975
X5.41Y-2.975
X5.47Y-4.875
X5.51Y-2.975
X5.57Y-4.875
X5.61Y-2.975
X5.67Y-4.875
X5.71Y-2.975
X5.77Y-4.875
X5.81Y-2.975
X5.87Y-4.875
X5.91Y-2.975
X5.97Y-4.875
X6.01Y-2.975
X6.07Y-4.875
X6.17Y-2.975
X6.17Y-4.875
X6.27Y-2.975
X6.37Y-2.975
X6.37Y-4.875
X6.47Y-2.975
X6.47Y-4.875
X6.57Y-2.975
X6.57Y-4.875
X6.67Y-2.975
X6.67Y-4.875
X6.77Y-2.975
X6.77Y-4.875
X6.87Y-2.975
X6.87Y-4.875
T5
X5.045Y-3.68
X5.045Y-4.28
X5.145Y-3.68
X5.145Y-4.28
X5.245Y-3.68
X5.245Y-4.28
X5.345Y-3.68
X5.345Y-4.28
X5.445Y-3.68
X5.445Y-4.28
X5.545Y-3.68
X5.545Y-4.28
X5.645Y-3.68
X5.645Y-4.28
X5.745Y-3.68
X5.745Y-4.28
X5.845Y-3.68
X5.845Y-4.28
X5.945Y-3.68
X5.945Y-4.28
X6.045Y-3.68
X6.045Y-4.28
X6.145Y-3.68
X6.145Y-4.28
T6
X4.575Y-2.99
X4.575Y-3.09
X4.575Y-3.255
X4.575Y-3.355
X4.575Y-3.52
X4.575Y-3.62
X4.575Y-3.79
X4.575Y-3.89
X4.575Y-4.05
X4.575Y-4.15
X4.575Y-4.32
X4.575Y-4.42
X4.81Y-4.585
X4.91Y-4.585
X5.08Y-4.585
X5.18Y-4.585
X6.625Y-3.525
X6.625Y-3.625
X6.625Y-3.805
X6.625Y-3.905
X6.865Y-4.09
X6.865Y-4.19
X6.865Y-4.36
X6.865Y-4.46
T7
X4.92Y-4.875
X4.97Y-2.975
X6.97Y-3.575
X6.97Y-4.675
T0
M30
