%TF.GenerationSoftware,KiCad,Pcbnew,5.1.10-88a1d61d58~90~ubuntu20.04.1*%
%TF.CreationDate,2021-09-15T20:54:35-06:00*%
%TF.ProjectId,Shiled,5368696c-6564-42e6-9b69-6361645f7063,rev?*%
%TF.SameCoordinates,Original*%
%TF.FileFunction,Soldermask,Top*%
%TF.FilePolarity,Negative*%
%FSLAX46Y46*%
G04 Gerber Fmt 4.6, Leading zero omitted, Abs format (unit mm)*
G04 Created by KiCad (PCBNEW 5.1.10-88a1d61d58~90~ubuntu20.04.1) date 2021-09-15 20:54:35*
%MOMM*%
%LPD*%
G01*
G04 APERTURE LIST*
%ADD10C,2.000000*%
%ADD11C,1.100000*%
%ADD12C,2.200000*%
%ADD13R,2.200000X2.200000*%
%ADD14O,1.600000X1.600000*%
%ADD15C,1.600000*%
%ADD16R,1.600000X0.760000*%
%ADD17C,1.800000*%
%ADD18R,1.800000X1.800000*%
%ADD19O,1.727200X2.032000*%
%ADD20C,4.064000*%
G04 APERTURE END LIST*
D10*
%TO.C,U1*%
X156083000Y-108712000D03*
X153543000Y-108712000D03*
X151003000Y-108712000D03*
X148463000Y-108712000D03*
X145923000Y-108712000D03*
X143383000Y-108712000D03*
X140843000Y-108712000D03*
X138303000Y-108712000D03*
X135763000Y-108712000D03*
X133223000Y-108712000D03*
X130683000Y-108712000D03*
X128143000Y-108712000D03*
X128143000Y-93472000D03*
X130683000Y-93472000D03*
X133223000Y-93472000D03*
X135763000Y-93472000D03*
X138303000Y-93472000D03*
X140843000Y-93472000D03*
X143383000Y-93472000D03*
X145923000Y-93472000D03*
X148463000Y-93472000D03*
X151003000Y-93472000D03*
X153543000Y-93472000D03*
X156083000Y-93472000D03*
%TD*%
D11*
%TO.C,J6*%
X170815000Y-89535000D03*
D12*
X168275000Y-89535000D03*
D11*
X170815000Y-92075000D03*
D13*
X168275000Y-92075000D03*
%TD*%
D14*
%TO.C,R3*%
X156210000Y-85217000D03*
D15*
X148590000Y-85217000D03*
%TD*%
D14*
%TO.C,R2*%
X173228000Y-80645000D03*
D15*
X165608000Y-80645000D03*
%TD*%
D16*
%TO.C,SW1*%
X154178000Y-80645000D03*
X161798000Y-80645000D03*
%TD*%
D11*
%TO.C,J5*%
X176911000Y-103886000D03*
D12*
X174371000Y-103886000D03*
D11*
X176911000Y-106426000D03*
D13*
X174371000Y-106426000D03*
%TD*%
D11*
%TO.C,J4*%
X113665000Y-112268000D03*
D12*
X116205000Y-112268000D03*
D11*
X113665000Y-109728000D03*
D13*
X116205000Y-109728000D03*
%TD*%
D11*
%TO.C,J3*%
X131572000Y-118999000D03*
D12*
X131572000Y-116459000D03*
D11*
X129032000Y-118999000D03*
D13*
X129032000Y-116459000D03*
%TD*%
D11*
%TO.C,J2*%
X113665000Y-98806000D03*
D12*
X116205000Y-98806000D03*
D11*
X113665000Y-96266000D03*
D13*
X116205000Y-96266000D03*
%TD*%
D11*
%TO.C,J1*%
X113665000Y-85217000D03*
D12*
X116205000Y-85217000D03*
D11*
X113665000Y-82677000D03*
D13*
X116205000Y-82677000D03*
%TD*%
D11*
%TO.C,E6*%
X124714000Y-118999000D03*
D12*
X124714000Y-116459000D03*
D11*
X122174000Y-118999000D03*
D13*
X122174000Y-116459000D03*
%TD*%
D11*
%TO.C,E5*%
X176911000Y-110744000D03*
D12*
X174371000Y-110744000D03*
D11*
X176911000Y-113284000D03*
D13*
X174371000Y-113284000D03*
%TD*%
D11*
%TO.C,E4*%
X170815000Y-96647000D03*
D12*
X168275000Y-96647000D03*
D11*
X170815000Y-99187000D03*
D13*
X168275000Y-99187000D03*
%TD*%
D11*
%TO.C,E3*%
X113665000Y-105410000D03*
D12*
X116205000Y-105410000D03*
D11*
X113665000Y-102870000D03*
D13*
X116205000Y-102870000D03*
%TD*%
D11*
%TO.C,E2*%
X113665000Y-91948000D03*
D12*
X116205000Y-91948000D03*
D11*
X113665000Y-89408000D03*
D13*
X116205000Y-89408000D03*
%TD*%
D11*
%TO.C,E1*%
X113665000Y-78486000D03*
D12*
X116205000Y-78486000D03*
D11*
X113665000Y-75946000D03*
D13*
X116205000Y-75946000D03*
%TD*%
D17*
%TO.C,D1*%
X141986000Y-85217000D03*
D18*
X144526000Y-85217000D03*
%TD*%
D19*
%TO.C,P1*%
X138938000Y-123825000D03*
X141478000Y-123825000D03*
X144018000Y-123825000D03*
X146558000Y-123825000D03*
X149098000Y-123825000D03*
X151638000Y-123825000D03*
X154178000Y-123825000D03*
X156718000Y-123825000D03*
%TD*%
%TO.C,P2*%
X161798000Y-123825000D03*
X164338000Y-123825000D03*
X166878000Y-123825000D03*
X169418000Y-123825000D03*
X171958000Y-123825000D03*
X174498000Y-123825000D03*
%TD*%
%TO.C,P3*%
X129794000Y-75565000D03*
X132334000Y-75565000D03*
X134874000Y-75565000D03*
X137414000Y-75565000D03*
X139954000Y-75565000D03*
X142494000Y-75565000D03*
X145034000Y-75565000D03*
X147574000Y-75565000D03*
X150114000Y-75565000D03*
X152654000Y-75565000D03*
%TD*%
%TO.C,P4*%
X156718000Y-75565000D03*
X159258000Y-75565000D03*
X161798000Y-75565000D03*
X164338000Y-75565000D03*
X166878000Y-75565000D03*
X169418000Y-75565000D03*
X171958000Y-75565000D03*
X174498000Y-75565000D03*
%TD*%
D20*
%TO.C,P5*%
X124968000Y-123825000D03*
%TD*%
%TO.C,P6*%
X177038000Y-118745000D03*
%TD*%
%TO.C,P7*%
X126238000Y-75565000D03*
%TD*%
%TO.C,P8*%
X177038000Y-90805000D03*
%TD*%
M02*
