M48
; DRILL file {KiCad 5.1.10-88a1d61d58~90~ubuntu20.04.1} date Wed Sep 15 20:54:38 2021
; FORMAT={-:-/ absolute / inch / decimal}
; #@! TF.CreationDate,2021-09-15T20:54:38-06:00
; #@! TF.GenerationSoftware,Kicad,Pcbnew,5.1.10-88a1d61d58~90~ubuntu20.04.1
; #@! TF.FileFunction,NonPlated,1,2,NPTH
FMAT,2
INCH
T1C0.0433
%
G90
G05
T1
X4.475Y-2.99
X4.475Y-3.09
X4.475Y-3.255
X4.475Y-3.355
X4.475Y-3.52
X4.475Y-3.62
X4.475Y-3.79
X4.475Y-3.89
X4.475Y-4.05
X4.475Y-4.15
X4.475Y-4.32
X4.475Y-4.42
X4.81Y-4.685
X4.91Y-4.685
X5.08Y-4.685
X5.18Y-4.685
X6.725Y-3.525
X6.725Y-3.625
X6.725Y-3.805
X6.725Y-3.905
X6.965Y-4.09
X6.965Y-4.19
X6.965Y-4.36
X6.965Y-4.46
T0
M30
